PathFileType	4	(X/Y/Z)	E:\Studenten\Marcel_BSc\Hannes_22_01_2025\22-01-2025\static_01.trc
DataRate	CameraRate	NumFrames	NumMarkers	Units	OrigDataRate	OrigDataStartFrame	OrigNumFrames
200.0	200.0	4	59	mm	200.0	187	497	
Frame#	Time	FHD			LBHD			RBHD			RBAR			LBAR			RASI			RSACR			LSACR			LASI			USACR			C7			CLAV			T10			RSHO			LSHO			LTHI1			LTHI3			LTHI2			LLFC			LMFC			LTIB1			LTIB2			LTIB3			LMMAL			LLMAL			LHEE			LMT1			LMT5			LMT3			RTHI1			RTHI2			RTHI3			RLFC			RMFC			RTIB1			RTIB3			RTIB2			RLMAL			RMMAL			RHEE			RMT5			RMT1			RMT3			LMEP			LLEP			LDUPA			LMUPA			LUUPA			LUL			LRAD			LRFIN			RUL			RRAD			RUFIN			RMEP			RLEP			RMUPA			RDUPA			RUUPA			
		X1	Y1	Z1	X2	Y2	Z2	X3	Y3	Z3	X4	Y4	Z4	X5	Y5	Z5	X6	Y6	Z6	X7	Y7	Z7	X8	Y8	Z8	X9	Y9	Z9	X10	Y10	Z10	X11	Y11	Z11	X12	Y12	Z12	X13	Y13	Z13	X14	Y14	Z14	X15	Y15	Z15	X16	Y16	Z16	X17	Y17	Z17	X18	Y18	Z18	X19	Y19	Z19	X20	Y20	Z20	X21	Y21	Z21	X22	Y22	Z22	X23	Y23	Z23	X24	Y24	Z24	X25	Y25	Z25	X26	Y26	Z26	X27	Y27	Z27	X28	Y28	Z28	X29	Y29	Z29	X30	Y30	Z30	X31	Y31	Z31	X32	Y32	Z32	X33	Y33	Z33	X34	Y34	Z34	X35	Y35	Z35	X36	Y36	Z36	X37	Y37	Z37	X38	Y38	Z38	X39	Y39	Z39	X40	Y40	Z40	X41	Y41	Z41	X42	Y42	Z42	X43	Y43	Z43	X44	Y44	Z44	X45	Y45	Z45	X46	Y46	Z46	X47	Y47	Z47	X48	Y48	Z48	X49	Y49	Z49	X50	Y50	Z50	X51	Y51	Z51	X52	Y52	Z52	X53	Y53	Z53	X54	Y54	Z54	X55	Y55	Z55	X56	Y56	Z56	X57	Y57	Z57	X58	Y58	Z58	X59	Y59	Z59	
187	0.93	66.6306	1709.7113	-1220.7876	151.07474	1680.4055	-1119.9058	163.60014	1675.7292	-1314.1582	-530.27301	25.793827	-2111.3665	-499.42551	36.272888	112.26736	110.16099	988.13635	-1329.6162	303.09976	1050.0669	-1256.0673	303.62411	1055.4891	-1148.6387	116.90739	995.09406	-1060.7255	304.06277	1074.5576	-1201.6332	293.97638	1170.5989	-1202.0759	124.76286	1449.5111	-1206.8403	295.04422	1492.9314	-1206.8062	274.55441	1484.5775	-1366.2336	273.24509	1491.2216	-1046.4937	213.13179	791.83411	-982.70618	184.33116	731.96094	-973.2854	234.30789	728.94061	-982.22174	223.60445	504.19672	-998.5564	206.66649	464.99512	-1106.4386	319.7952	278.00107	-966.7287	269.38373	267.87497	-961.67261	306.15677	214.09962	-968.36572	277.43008	86.208321	-1054.3695	309.68491	80.107498	-965.93591	354.47626	22.006081	-1015.2267	142.84018	40.010967	-996.71368	185.67633	26.591984	-915.6333	149.0657	30.097776	-948.54681	222.53203	782.08405	-1410.1244	190.71411	724.31464	-1417.1781	239.9948	718.29034	-1408.543	218.1638	494.77176	-1383.9263	196.14923	477.55872	-1277.3486	295.01691	274.36758	-1422.7609	244.93298	277.38852	-1414.3473	268.64218	215.72893	-1413.9624	295.12213	79.959961	-1409.9319	257.50308	83.343628	-1322.6886	343.86807	30.171049	-1366.3734	184.12927	27.417873	-1460.9604	124.54604	36.017712	-1389.6892	135.75102	28.377195	-1438.13	217.16925	1356.9786	-769.5929	280.31284	1447.481	-762.2392	288.99957	1440.8688	-829.14893	254.61957	1482.6556	-887.65845	291.85898	1449.4866	-890.34961	200.61331	1480.3138	-519.80219	158.52289	1501.353	-534.17371	116.4269	1492.214	-433.62711	216.26363	1468.7976	-1901.744	172.76591	1493.5162	-1883.1333	156.47118	1489.4619	-1995.724	230.28612	1352.6467	-1638.0624	295.70532	1440.6199	-1653.4221	310.40793	1426.5634	-1548.0732	290.24579	1451.6208	-1585.7833	290.72882	1471.9415	-1509.1123
188	0.935	66.633499	1709.7155	-1220.7783	151.06615	1680.396	-1119.9108	163.61609	1675.7305	-1314.149	-530.23901	25.835001	-2111.4644	-499.42014	36.271828	112.27179	110.19712	988.16125	-1329.5966	303.1073	1050.0559	-1256.0688	303.62137	1055.4856	-1148.6401	116.92474	995.09937	-1060.7122	304.06747	1074.5598	-1201.6332	293.97629	1170.5931	-1202.0765	124.7527	1449.536	-1206.8197	295.04337	1492.9272	-1206.7819	274.56314	1484.5851	-1366.2142	273.24738	1491.2239	-1046.4852	213.12231	791.83655	-982.70679	184.3427	731.948	-973.29022	234.29918	728.93872	-982.22711	223.61516	504.20285	-998.55664	206.67474	464.99823	-1106.4471	319.78909	278.00226	-966.72168	269.44379	267.86331	-961.68164	306.15997	214.09448	-968.35803	277.43234	86.220886	-1054.3756	309.66931	80.096542	-965.93823	354.47894	22.005888	-1015.237	142.84767	40.018166	-996.71771	185.6796	26.5877	-915.63904	149.07655	30.092794	-948.55359	222.53842	782.08087	-1410.1288	190.71602	724.31311	-1417.1783	239.97868	718.30646	-1408.5623	218.1671	494.78531	-1383.924	196.14316	477.55521	-1277.3567	295.02011	274.36639	-1422.7583	244.96967	277.38345	-1414.3597	268.64404	215.72401	-1413.9705	295.11679	79.962257	-1409.9198	257.50656	83.345428	-1322.6886	343.88458	30.18121	-1366.347	184.13452	27.430353	-1460.9672	124.551	35.995529	-1389.6914	135.75031	28.370777	-1438.1359	217.16306	1356.9669	-769.59039	280.31464	1447.4668	-762.23163	289.0058	1440.8494	-829.13489	254.62692	1482.6572	-887.64441	291.85306	1449.4858	-890.33569	200.60835	1480.298	-519.7981	158.51756	1501.3314	-534.17554	116.42609	1492.1948	-433.61725	216.28551	1468.7961	-1901.7657	172.79141	1493.527	-1883.1262	156.48872	1489.4794	-1995.7134	230.32266	1352.6843	-1638.0596	295.72168	1440.6289	-1653.3988	310.42371	1426.5634	-1548.0521	290.25714	1451.6256	-1585.7722	290.75201	1471.9427	-1509.097
189	0.94	66.599945	1709.7415	-1220.7491	151.07091	1680.3958	-1119.8955	163.62325	1675.7271	-1314.1423	-530.24213	25.790678	-2111.429	-499.43106	36.268406	112.28335	110.18928	988.15125	-1329.5858	303.11581	1050.0565	-1256.0659	303.62799	1055.485	-1148.6398	116.92598	995.11371	-1060.719	304.06387	1074.5658	-1201.6387	293.97369	1170.601	-1202.0756	124.7401	1449.564	-1206.7948	295.04999	1492.9373	-1206.7749	274.58817	1484.5774	-1366.214	273.24957	1491.2253	-1046.4679	213.12341	791.823	-982.69861	184.34282	731.94147	-973.30231	234.33179	728.93958	-982.21851	223.5545	504.23663	-998.5603	206.68604	464.9917	-1106.4421	319.80414	277.99536	-966.71631	269.38583	267.89386	-961.68268	306.16367	214.09845	-968.37421	277.43817	86.200562	-1054.373	309.66879	80.096046	-965.93817	354.48004	22.002138	-1015.2383	142.85048	40.000153	-996.72668	185.67117	26.59536	-915.63898	149.0695	30.087622	-948.54956	222.53679	782.08203	-1410.125	190.70862	724.30927	-1417.1825	239.96674	718.30469	-1408.5823	218.16335	494.78638	-1383.9287	196.13467	477.55383	-1277.3507	295.02029	274.37015	-1422.7528	244.8951	277.39291	-1414.266	268.65497	215.7204	-1413.9644	295.11954	79.958603	-1409.9172	257.50211	83.341682	-1322.6882	343.87927	30.178337	-1366.351	184.12505	27.404949	-1460.9534	124.55298	35.99929	-1389.6917	135.74298	28.372713	-1438.1338	217.14931	1356.9508	-769.57715	280.32196	1447.4539	-762.21777	289.01129	1440.8265	-829.13116	254.62848	1482.6442	-887.63556	291.86298	1449.4713	-890.32916	200.59727	1480.2654	-519.79907	158.51378	1501.3196	-534.177	116.4149	1492.1813	-433.61829	216.29874	1468.8254	-1901.7456	172.80202	1493.5479	-1883.1189	156.49384	1489.494	-1995.7046	230.33867	1352.6985	-1638.0319	295.73395	1440.6412	-1653.402	310.44397	1426.5719	-1548.0464	290.2702	1451.6384	-1585.7563	290.76404	1471.9514	-1509.0779
190	0.945	66.634247	1709.7217	-1220.7709	151.05345	1680.3954	-1119.884	163.64157	1675.7285	-1314.1304	-530.18933	25.840084	-2111.5371	-499.43036	36.267998	112.27086	110.24329	988.16541	-1329.597	303.11121	1050.0553	-1256.0721	303.62701	1055.476	-1148.6387	116.91964	995.12299	-1060.7313	304.07285	1074.5619	-1201.636	293.98444	1170.6061	-1202.0604	124.75008	1449.5758	-1206.7882	295.04657	1492.927	-1206.7533	274.58517	1484.5846	-1366.1927	273.24506	1491.2129	-1046.4669	213.11293	791.81464	-982.72833	184.33836	731.94891	-973.29694	234.32039	728.94336	-982.21283	223.61522	504.20773	-998.55914	206.68753	464.99265	-1106.4409	319.80917	277.98105	-966.71869	269.39636	267.86484	-961.68329	306.16272	214.09084	-968.38025	277.43362	86.206665	-1054.3757	309.67752	80.097145	-965.94495	354.47516	22.013391	-1015.2502	142.83929	40.01228	-996.72473	185.67493	26.591949	-915.62988	149.06546	30.096695	-948.54749	222.54019	782.07617	-1410.1163	190.71106	724.30847	-1417.1792	239.9726	718.29913	-1408.5801	218.16684	494.77789	-1383.9303	196.13271	477.56363	-1277.3477	295.0162	274.37653	-1422.7634	244.94022	277.38705	-1414.3219	268.63553	215.71205	-1413.9691	295.11227	79.975838	-1409.9318	257.49905	83.34333	-1322.6851	343.867	30.179865	-1366.3746	184.13324	27.416075	-1460.9613	124.54664	36.002129	-1389.6906	135.74715	28.373758	-1438.1321	217.18283	1356.955	-769.58356	280.33093	1447.4209	-762.20667	289.01669	1440.8197	-829.12482	254.63489	1482.6389	-887.6264	291.8623	1449.4517	-890.3208	200.60286	1480.2417	-519.77997	158.49553	1501.2826	-534.18097	116.40224	1492.1572	-433.60562	216.31453	1468.8307	-1901.7512	172.8163	1493.5667	-1883.1061	156.49998	1489.5237	-1995.6915	230.37347	1352.6975	-1638.0332	295.74918	1440.6528	-1653.3701	310.45877	1426.578	-1548.0287	290.30286	1451.6423	-1585.7423	290.7966	1471.9427	-1509.0797
